<svg width="24" height="24" viewBox="0 0 24 24" fill="none" xmlns="http://www.w3.org/2000/svg">
<path d="M14.6903 12.0006L19.2623 16.5726C19.5593 16.8696 19.5593 17.3519 19.2623 17.6489L17.649 19.2621C17.352 19.5591 16.8705 19.5591 16.5728 19.2621L12 14.6901L7.42726 19.2621C7.13026 19.5591 6.64876 19.5591 6.35176 19.2621L4.73776 17.6489C4.44076 17.3519 4.44076 16.8704 4.73776 16.5726L9.31051 12.0006L4.73776 7.42788C4.44076 7.13088 4.44076 6.64862 4.73776 6.35162L6.35251 4.73837C6.64951 4.44137 7.13101 4.44137 7.42801 4.73837L12 9.31113L16.5728 4.73837C16.8698 4.44137 17.3513 4.44137 17.649 4.73837L19.2623 6.35238C19.5593 6.64938 19.5593 7.13087 19.2623 7.42862L14.6903 12.0006Z" fill="black"/>
</svg>
